<svg xmlns="http://www.w3.org/2000/svg" width="57" height="46" viewBox="0 0 57 46" fill="none">
  <g opacity="0.7">
    <path d="M12.001 17.0575C16.33 17.0575 19.8384 14.0953 19.8384 10.4404C19.8384 6.78539 16.33 3.82495 12.001 3.82495C7.67201 3.82495 4.16357 6.78713 4.16357 10.4421C4.16357 14.0971 7.67201 17.0593 12.001 17.0593V17.0575Z" fill="white"/>
    <path d="M40.7211 9.09931C40.8013 4.63592 36.5809 0.962681 31.2944 0.894903C26.0079 0.827124 21.6573 4.39047 21.577 8.85386C21.4967 13.3173 25.7172 16.9905 31.0037 17.0583C36.2902 17.1261 40.6408 13.5627 40.7211 9.09931Z" fill="white"/>
    <path d="M36.6268 18.6714H6.88114C3.08068 18.6714 0 21.2741 0 24.4829V40.1706C0 43.3794 3.08068 45.9804 6.88114 45.9804H36.6268C40.4272 45.9804 43.5079 43.3794 43.5079 40.1706V26.8894H9.24821C8.48729 26.8894 7.87239 26.3703 7.87239 25.7278C7.87239 25.0854 8.48935 24.5662 9.24821 24.5662H43.5079V24.4846C43.5079 21.2759 40.4272 18.6749 36.6268 18.6749V18.6714ZM9.39833 36.0017C10.7885 36.0017 11.9135 36.9532 11.9135 38.1252C11.9135 39.2973 10.7865 40.2488 9.39833 40.2488C8.01018 40.2488 6.8832 39.2973 6.8832 38.1252C6.8832 36.9532 8.01018 36.0017 9.39833 36.0017Z" fill="white"/>
    <path d="M52.5898 23.7789L46.7205 26.7932C46.4305 26.9425 46.2537 27.2064 46.2537 27.4929V37.1573C46.2537 37.4438 46.4305 37.7095 46.7205 37.8571L52.5898 40.8713C54.3913 41.7968 56.6988 40.7012 56.6988 38.9197V25.7288C56.6988 23.9473 54.3913 22.8534 52.5898 23.7772V23.7789Z" fill="white"/>
  </g>
</svg>