<svg xmlns="http://www.w3.org/2000/svg" width="170" height="28" viewBox="0 0 170 28" fill="none">
  <g clip-path="url(#clip0_69_777)">
    <path d="M60.1989 10.3319C60.1989 14.073 57.7064 17.025 53.4939 17.025H50.7099C49.9228 17.025 49.2815 17.668 49.2815 18.4572V22.5052C49.2815 23.2943 48.6401 23.9373 47.853 23.9373C47.0659 23.9373 46.4246 23.2943 46.4246 22.5052V15.6075C46.4246 14.8183 47.0659 14.1753 47.853 14.1753H53.5231C55.5929 14.1753 57.342 13.1085 57.342 10.5219C57.342 7.93524 55.418 6.80998 53.3336 6.80998H47.853C47.0659 6.80998 46.4246 6.16697 46.4246 5.37783C46.4246 4.58869 47.0659 3.94568 47.853 3.94568H52.6048C57.7938 3.94568 60.1989 6.56155 60.1989 10.3319Z" fill="white"/>
    <path d="M64.907 3.94568C65.6941 3.94568 66.3354 4.58868 66.3354 5.37783V22.4906C66.3354 23.2797 65.6941 23.9227 64.907 23.9227C64.1199 23.9227 63.4785 23.2797 63.4785 22.4906V5.37783C63.4785 4.58868 64.1199 3.94568 64.907 3.94568ZM67.9534 22.4906C67.9534 21.7014 68.5947 21.0584 69.3818 21.0584H72.9821C73.7692 21.0584 74.4105 21.7014 74.4105 22.4906C74.4105 23.2797 73.7692 23.9227 72.9821 23.9227H69.3818C68.5947 23.9227 67.9534 23.2797 67.9534 22.4906Z" fill="white"/>
    <path d="M137.685 22.5344V5.45094C137.685 4.82255 137.321 4.22338 136.723 4.0334C135.746 3.72651 134.843 4.44259 134.843 5.39248V16.6451C134.843 17.0397 134.58 17.405 134.187 17.5073C133.866 17.595 133.516 17.4927 133.298 17.2443L123.269 5.96242C122.861 5.49478 122.176 5.29019 121.622 5.53862C120.675 5.96242 120.485 7.10229 121.112 7.80376L135.12 23.5866C135.309 23.8351 135.572 24.025 135.878 24.1273C135.907 24.1273 135.936 24.142 135.95 24.1566C135.994 24.1566 136.023 24.1566 136.067 24.1712C136.125 24.1712 136.198 24.1858 136.257 24.1858C136.257 24.1858 136.271 24.1858 136.286 24.1858C136.621 24.1858 136.956 24.0689 137.233 23.8351C137.612 23.499 137.758 23.0167 137.7 22.5637L137.685 22.5344Z" fill="white"/>
    <path d="M123.43 12.1733C122.57 11.3111 121.083 11.9102 121.083 13.1378V22.5491C121.083 23.309 121.695 23.9227 122.453 23.9227H122.555C123.313 23.9227 123.925 23.309 123.925 22.5491V13.2547C123.925 12.8893 123.78 12.5386 123.532 12.2902L123.43 12.1879V12.1733Z" fill="white"/>
    <path d="M156.707 5.37783V5.31937C156.707 4.55946 157.319 3.94568 158.077 3.94568H168.63C169.388 3.94568 170 4.55946 170 5.31937V5.37783C170 6.13775 169.388 6.75152 168.63 6.75152H158.077C157.319 6.75152 156.707 6.13775 156.707 5.37783ZM161.925 22.549V9.74735C161.925 8.98743 162.537 8.37365 163.295 8.37365H163.397C164.155 8.37365 164.767 8.98743 164.767 9.74735V22.549C164.767 23.3089 164.155 23.9227 163.397 23.9227H163.295C162.537 23.9227 161.925 23.3089 161.925 22.549Z" fill="white"/>
    <path d="M84.8179 3.69727C79.177 3.69727 74.6001 8.28599 74.6001 13.9415C74.6001 19.5971 79.177 24.1858 84.8179 24.1858C90.4588 24.1858 95.0357 19.5971 95.0357 13.9415C95.0357 8.28599 90.4588 3.69727 84.8179 3.69727ZM84.8179 21.3215C80.7512 21.3215 77.457 18.0188 77.457 13.9415C77.457 9.86428 80.7512 6.56157 84.8179 6.56157C88.8846 6.56157 92.1788 9.86428 92.1788 13.9415C92.1788 18.0188 88.8846 21.3215 84.8179 21.3215Z" fill="white"/>
    <path d="M107.688 3.69727C102.047 3.69727 97.4697 8.28599 97.4697 13.9415C97.4697 19.5971 102.047 24.1858 107.688 24.1858C113.328 24.1858 117.905 19.5971 117.905 13.9415C117.905 8.28599 113.328 3.69727 107.688 3.69727ZM107.688 21.3215C103.621 21.3215 100.327 18.0188 100.327 13.9415C100.327 9.86428 103.621 6.56157 107.688 6.56157C111.754 6.56157 115.048 9.86428 115.048 13.9415C115.048 18.0188 111.754 21.3215 107.688 21.3215Z" fill="white"/>
    <path d="M153.194 3.94568H142.539C141.75 3.94568 141.11 4.5836 141.11 5.37052C141.11 6.15744 141.75 6.79537 142.539 6.79537H153.194C153.983 6.79537 154.622 6.15744 154.622 5.37052C154.622 4.5836 153.983 3.94568 153.194 3.94568Z" fill="white"/>
    <path d="M153.194 21.0584H142.539C141.75 21.0584 141.11 21.6963 141.11 22.4833C141.11 23.2702 141.75 23.9081 142.539 23.9081H153.194C153.983 23.9081 154.622 23.2702 154.622 22.4833C154.622 21.6963 153.983 21.0584 153.194 21.0584Z" fill="white"/>
    <path d="M149.885 12.524H142.539C141.75 12.524 141.11 13.1619 141.11 13.9488C141.11 14.7358 141.75 15.3737 142.539 15.3737H149.885C150.674 15.3737 151.314 14.7358 151.314 13.9488C151.314 13.1619 150.674 12.524 149.885 12.524Z" fill="white"/>
    <path d="M34.9534 5.9916L31.1053 7.39453C27.884 1.34442 20.6543 -1.56372 14.0368 0.847554C7.41931 3.25883 3.76073 10.1565 5.16002 16.8643L1.31196 18.2672C0.277061 18.6471 -0.247676 19.787 0.116724 20.8246C0.481125 21.8622 1.63263 22.3883 2.66753 22.0229L6.51559 20.62C9.73689 26.6701 16.9666 29.5782 23.5841 27.167C30.187 24.7557 33.8602 17.858 32.4609 11.1503L36.309 9.74734C37.3439 9.36739 37.8686 8.22751 37.5042 7.18993C37.1398 6.15236 35.9883 5.62626 34.9534 5.9916ZM22.214 23.3674C17.054 25.2526 11.3403 22.5782 9.45995 17.405C7.57964 12.2317 10.2471 6.50309 15.407 4.61791C19.9255 2.96655 24.8668 4.80789 27.2864 8.76822L21.7621 10.7849C20.7272 11.1649 20.2025 12.3048 20.5669 13.3423C20.9458 14.3799 22.0828 14.906 23.1177 14.5407L28.642 12.524C29.327 17.1127 26.7325 21.716 22.1994 23.3674H22.214Z" fill="white"/>
  </g>
  <defs>
    <clipPath id="clip0_69_777">
      <rect width="170" height="28" fill="white"/>
    </clipPath>
  </defs>
</svg>