<svg xmlns="http://www.w3.org/2000/svg" width="25" height="33" viewBox="0 0 25 33" fill="none">
  <g opacity="0.7" clip-path="url(#clip0_69_983)">
    <path d="M18.2346 7.81131C17.7057 7.81131 17.2764 7.37448 17.2764 6.83625V0.693359H0.0292969V32.0903H24.6544V7.81131H18.2346ZM4.91599 5.86119H12.6772C13.2061 5.86119 13.6354 6.29801 13.6354 6.83625C13.6354 7.37448 13.2061 7.81131 12.6772 7.81131H4.91599C4.38708 7.81131 3.95781 7.37448 3.95781 6.83625C3.95781 6.29801 4.38708 5.86119 4.91599 5.86119ZM15.2643 26.825H4.91599C4.38708 26.825 3.95781 26.3882 3.95781 25.85C3.95781 25.3117 4.38708 24.8749 4.91599 24.8749H15.2643C15.7932 24.8749 16.2224 25.3117 16.2224 25.85C16.2224 26.3882 15.7932 26.825 15.2643 26.825ZM19.7677 20.3896H4.91599C4.38708 20.3896 3.95781 19.9528 3.95781 19.4145C3.95781 18.8763 4.38708 18.4395 4.91599 18.4395H19.7677C20.2966 18.4395 20.7259 18.8763 20.7259 19.4145C20.7259 19.9528 20.2966 20.3896 19.7677 20.3896ZM19.7677 14.2467H4.91599C4.38708 14.2467 3.95781 13.8099 3.95781 13.2717C3.95781 12.7334 4.38708 12.2966 4.91599 12.2966H19.7677C20.2966 12.2966 20.7259 12.7334 20.7259 13.2717C20.7259 13.8099 20.2966 14.2467 19.7677 14.2467Z" fill="white"/>
    <path d="M24.5344 5.86178C24.476 5.74378 24.3983 5.63554 24.3015 5.54387L19.6116 1.10093C19.488 0.983904 19.3452 0.891261 19.1929 0.822998V5.86275H24.5344V5.86178Z" fill="white"/>
  </g>
  <defs>
    <clipPath id="clip0_69_983">
      <rect width="24.6251" height="31.397" fill="white" transform="translate(0.0292969 0.693359)"/>
    </clipPath>
  </defs>
</svg>