<svg xmlns="http://www.w3.org/2000/svg" width="60" height="55" viewBox="0 0 60 55" fill="none">
  <g opacity="0.7" clip-path="url(#clip0_69_674)">
    <path d="M0 50.0948C0 51.075 0.794457 51.8645 1.78076 51.8645H12.129V48.3252H1.78301C0.796714 48.3252 0 49.1147 0 50.0948Z" fill="white"/>
    <path d="M57.3703 48.3252H20.4438V51.8645H57.3703C58.3566 51.8645 59.1511 51.075 59.1511 50.0948C59.1511 49.1147 58.3566 48.3252 57.3703 48.3252Z" fill="white"/>
    <path d="M16.2886 45.1897C15.3045 45.1897 14.5078 45.9814 14.5078 46.9593V53.2282C14.5078 54.2061 15.3045 54.9978 16.2886 54.9978C17.2726 54.9978 18.0693 54.2061 18.0693 53.2282V46.9593C18.0693 45.9814 17.2726 45.1897 16.2886 45.1897Z" fill="white"/>
    <path d="M55.7429 0H3.4103C1.53023 0 0 1.52068 0 3.389V39.6946C0 41.5629 1.53023 43.0836 3.4103 43.0836H55.7429C57.623 43.0836 59.1532 41.5629 59.1532 39.6946V3.389C59.1532 1.52068 57.623 0 55.7429 0ZM29.5755 35.1011C22.0507 35.1011 15.932 29.0184 15.932 21.5407C15.932 14.0629 22.053 7.98018 29.5755 7.98018C37.098 7.98018 43.2189 14.0629 43.2189 21.5407C43.2189 29.0184 37.098 35.1011 29.5755 35.1011Z" fill="white"/>
    <path d="M35.5543 20.0133L27.5827 15.3571C26.3932 14.6618 24.8923 15.5141 24.8923 16.8867V26.1992C24.8923 27.5696 26.391 28.4219 27.5827 27.7288L35.5543 23.0726C36.7279 22.3863 36.7279 20.6996 35.5543 20.0133Z" fill="white"/>
  </g>
  <defs>
    <clipPath id="clip0_69_674">
      <rect width="59.1509" height="55" fill="white"/>
    </clipPath>
  </defs>
</svg>